<svg width="36" height="36" viewBox="0 0 36 36" fill="none" xmlns="http://www.w3.org/2000/svg">
<circle cx="18" cy="18" r="18" fill="#9CA3AF"/>
<path d="M12 14.1951C12 13.2789 12.6348 12.7042 13.145 13.1591L17.9808 17.4651C18.098 17.5694 18.1955 17.7201 18.2633 17.9021C18.331 18.084 18.3667 18.2906 18.3667 18.501C18.3667 18.7114 18.331 18.918 18.2633 19.1C18.1955 19.2819 18.098 19.4327 17.9808 19.537L13.145 23.8429C13.0286 23.9466 12.8968 24.0007 12.7627 24C12.6286 23.9993 12.4971 23.9437 12.3811 23.8388C12.2652 23.7339 12.169 23.5834 12.1021 23.4023C12.0352 23.2212 12 23.0159 12 22.807V14.1951ZM18.6333 14.1951C18.6333 13.2789 19.268 12.7042 19.7783 13.1591L24.6141 17.4651C24.7313 17.5694 24.8288 17.7201 24.8965 17.9021C24.9643 18.084 25 18.2906 25 18.501C25 18.7114 24.9643 18.918 24.8965 19.1C24.8288 19.2819 24.7313 19.4327 24.6141 19.537L19.7783 23.8429C19.6619 23.9466 19.53 24.0007 19.396 24C19.2619 23.9993 19.1303 23.9437 19.0144 23.8388C18.8984 23.7339 18.8022 23.5834 18.7353 23.4023C18.6684 23.2212 18.6332 23.0159 18.6333 22.807V14.1951Z" stroke="white" stroke-width="1.5" stroke-linecap="round" stroke-linejoin="round"/>
</svg>
