<svg width="36" height="36" viewBox="0 0 36 36" fill="none" xmlns="http://www.w3.org/2000/svg">
<circle cx="18" cy="18" r="18" fill="#1C64F2"/>
<path d="M10.527 19.2415C10.4752 19.0859 10.4752 18.9178 10.527 18.7622C11.5673 15.6325 14.52 13.375 18 13.375C21.4785 13.375 24.4298 15.6303 25.4723 18.7585C25.5248 18.9138 25.5248 19.0818 25.4723 19.2378C24.4328 22.3675 21.48 24.625 18 24.625C14.5215 24.625 11.5695 22.3697 10.527 19.2415Z" stroke="white" stroke-width="1.5" stroke-linecap="round" stroke-linejoin="round"/>
<path d="M20.25 19C20.25 19.5967 20.0129 20.169 19.591 20.591C19.169 21.0129 18.5967 21.25 18 21.25C17.4033 21.25 16.831 21.0129 16.409 20.591C15.9871 20.169 15.75 19.5967 15.75 19C15.75 18.4033 15.9871 17.831 16.409 17.409C16.831 16.9871 17.4033 16.75 18 16.75C18.5967 16.75 19.169 16.9871 19.591 17.409C20.0129 17.831 20.25 18.4033 20.25 19Z" stroke="white" stroke-width="1.5" stroke-linecap="round" stroke-linejoin="round"/>
</svg>
