<svg width="36" height="36" viewBox="0 0 36 36" fill="none" xmlns="http://www.w3.org/2000/svg">
<circle cx="18" cy="18" r="18" fill="#E02424"/>
<path fill-rule="evenodd" clip-rule="evenodd" d="M13 13.55C13 13.4041 13.0753 13.2642 13.2092 13.1611C13.3432 13.0579 13.5248 13 13.7143 13H15.1429C15.3323 13 15.514 13.0579 15.6479 13.1611C15.7819 13.2642 15.8571 13.4041 15.8571 13.55V23.45C15.8571 23.5959 15.7819 23.7358 15.6479 23.8389C15.514 23.9421 15.3323 24 15.1429 24H13.7143C13.5248 24 13.3432 23.9421 13.2092 23.8389C13.0753 23.7358 13 23.5959 13 23.45V13.55ZM20.1429 13.55C20.1429 13.4041 20.2181 13.2642 20.3521 13.1611C20.486 13.0579 20.6677 13 20.8571 13H22.2857C22.4752 13 22.6568 13.0579 22.7908 13.1611C22.9247 13.2642 23 13.4041 23 13.55V23.45C23 23.5959 22.9247 23.7358 22.7908 23.8389C22.6568 23.9421 22.4752 24 22.2857 24H20.8571C20.6677 24 20.486 23.9421 20.3521 23.8389C20.2181 23.7358 20.1429 23.5959 20.1429 23.45V13.55Z" fill="white"/>
</svg>
