<svg width="36" height="36" viewBox="0 0 36 36" fill="none" xmlns="http://www.w3.org/2000/svg">
<circle cx="18" cy="18" r="18" fill="#057A55"/>
<path d="M13 12.9046C13 12.2174 13.798 11.7822 14.4506 12.113L24.4924 17.209C24.6461 17.2869 24.7743 17.4014 24.8636 17.5407C24.9529 17.68 25 17.8388 25 18.0006C25 18.1624 24.9529 18.3213 24.8636 18.4605C24.7743 18.5998 24.6461 18.7144 24.4924 18.7923L14.4506 23.8883C14.3015 23.9639 14.1337 24.0024 13.9636 23.9999C13.7935 23.9974 13.627 23.9541 13.4806 23.8742C13.3341 23.7943 13.2128 23.6805 13.1286 23.5442C13.0443 23.4078 13 23.2536 13 23.0966V12.9046Z" stroke="white" stroke-width="2.5" stroke-linecap="round" stroke-linejoin="round"/>
</svg>
