<svg width="36" height="36" viewBox="0 0 36 36" fill="none" xmlns="http://www.w3.org/2000/svg">
<circle cx="18" cy="18" r="18" fill="#F59E0B"/>
<path d="M20.6777 16.0716H24L21.883 13.7571C21.2014 13.0124 20.3524 12.4769 19.4214 12.2043C18.4903 11.9318 17.51 11.9319 16.579 12.2046C15.6479 12.4772 14.799 13.0129 14.1176 13.7577C13.4361 14.5025 12.9461 15.4302 12.6968 16.4475M12.0007 23.5583V19.9284M12.0007 19.9284H15.3229M12.0007 19.9284L14.117 22.2429C14.7986 22.9876 15.6476 23.5231 16.5786 23.7957C17.5097 24.0682 18.49 24.0681 19.421 23.7954C20.3521 23.5228 21.201 22.9871 21.8824 22.2423C22.5639 21.4975 23.0539 20.5698 23.3032 19.5525M24 12.4417V16.0701" stroke="white" stroke-width="2" stroke-linecap="round" stroke-linejoin="round"/>
</svg>
