<svg width="36" height="36" viewBox="0 0 36 36" fill="none" xmlns="http://www.w3.org/2000/svg">
<circle cx="18" cy="18" r="18" fill="#9CA3AF"/>
<path d="M24 14.1951C24 13.2789 23.3652 12.7042 22.855 13.1591L18.0192 17.4651C17.902 17.5694 17.8045 17.7201 17.7367 17.9021C17.669 18.084 17.6333 18.2906 17.6333 18.501C17.6333 18.7114 17.669 18.918 17.7367 19.1C17.8045 19.2819 17.902 19.4327 18.0192 19.537L22.855 23.8429C22.9714 23.9466 23.1032 24.0007 23.2373 24C23.3714 23.9993 23.5029 23.9437 23.6189 23.8388C23.7348 23.7339 23.831 23.5834 23.8979 23.4023C23.9648 23.2212 24 23.0159 24 22.807V14.1951ZM17.3667 14.1951C17.3667 13.2789 16.732 12.7042 16.2217 13.1591L11.3859 17.4651C11.2687 17.5694 11.1712 17.7201 11.1035 17.9021C11.0357 18.084 11 18.2906 11 18.501C11 18.7114 11.0357 18.918 11.1035 19.1C11.1712 19.2819 11.2687 19.4327 11.3859 19.537L16.2217 23.8429C16.3381 23.9466 16.47 24.0007 16.604 24C16.7381 23.9993 16.8697 23.9437 16.9856 23.8388C17.1016 23.7339 17.1978 23.5834 17.2647 23.4023C17.3316 23.2212 17.3668 23.0159 17.3667 22.807V14.1951Z" stroke="white" stroke-width="1.5" stroke-linecap="round" stroke-linejoin="round"/>
</svg>
